<?xml version="1.0" encoding="UTF-8"?>
<svg width="24px" height="24px" viewBox="0 0 24 24" version="1.1" xmlns="http://www.w3.org/2000/svg" xmlns:xlink="http://www.w3.org/1999/xlink">
    <!-- Generator: Sketch 48.2 (47327) - http://www.bohemiancoding.com/sketch -->
    <title>Group 3 Copy</title>
    <desc>Created with Sketch.</desc>
    <defs></defs>
    <g id="Desktop-HD-Copy-3" stroke="none" stroke-width="1" fill="none" fill-rule="evenodd" transform="translate(-1336.000000, -31.000000)">
        <g id="Group-4" transform="translate(1208.000000, 31.000000)" fill="#5762B9">
            <g id="Group-3-Copy" transform="translate(128.000000, 0.000000)">
                <path d="M3,0 L21,0 C22.6568542,-3.04359188e-16 24,1.34314575 24,3 L24,21 C24,22.6568542 22.6568542,24 21,24 L3,24 C1.34314575,24 2.02906125e-16,22.6568542 0,21 L0,3 C-2.02906125e-16,1.34314575 1.34314575,3.04359188e-16 3,0 Z M10.2437647,5.64705882 L6.35294118,18.5124706 L9.17929412,18.5124706 L10.0051765,15.5576471 L14.3181176,15.5576471 L15.1256471,18.5124706 L18.0621176,18.5124706 L14.1529412,5.64705882 L10.2437647,5.64705882 Z" id="Combined-Shape"></path>
                <path d="M11.1797647,11.3731765 C11.6385882,9.73976471 11.9138824,8.69364706 12.1341176,7.59247059 L12.2075294,7.59247059 C12.4277647,8.73035294 12.6847059,9.66635294 13.1802353,11.4465882 L13.6757647,13.2451765 L10.6475294,13.2451765 L11.1797647,11.3731765 Z" id="Combined-Shape"></path>
            </g>
        </g>
    </g>
</svg>