<?xml version="1.0" encoding="UTF-8"?>
<svg width="24px" height="24px" viewBox="0 0 24 24" version="1.1" xmlns="http://www.w3.org/2000/svg" xmlns:xlink="http://www.w3.org/1999/xlink">
    <!-- Generator: Sketch 48.2 (47327) - http://www.bohemiancoding.com/sketch -->
    <title>Group 3</title>
    <desc>Created with Sketch.</desc>
    <defs></defs>
    <g id="Desktop-HD-Copy-3" stroke="none" stroke-width="1" fill="none" fill-rule="evenodd" transform="translate(-1384.000000, -31.000000)">
        <g id="Group-4" transform="translate(1208.000000, 31.000000)" fill="#5762B9">
            <g id="Group-3" transform="translate(176.000000, 0.000000)">
                <path d="M3,0 L21,0 C22.6568542,-3.04359188e-16 24,1.34314575 24,3 L24,21 C24,22.6568542 22.6568542,24 21,24 L3,24 C1.34314575,24 2.02906125e-16,22.6568542 0,21 L0,3 C-2.02906125e-16,1.34314575 1.34314575,3.04359188e-16 3,0 Z M19.3482353,5.73882353 L13.4018824,5.73882353 L13.4018824,7.73929412 L14.8334118,7.73929412 L14.8334118,11.5383529 C14.4847059,11.7218824 14.0075294,11.8503529 13.3651765,11.8503529 C12.9063529,11.8503529 12.3924706,11.7402353 11.8969412,11.4832941 C11.8602353,11.4649412 11.8235294,11.4465882 11.7868235,11.4098824 L11.7684706,11.4098824 C11.5665882,11.2997647 11.3463529,11.2263529 11.1444706,11.1896471 L11.1444706,11.1162353 C12.0070588,10.6941176 12.4842353,9.79482353 12.4842353,8.74870588 C12.4842353,6.87670588 11.0527059,5.64705882 8.90541176,5.64705882 C7.38211765,5.64705882 6.22588235,6.34447059 5.63858824,7.18870588 L7.25364706,8.712 C7.60235294,8.14305882 8.09788235,7.79435294 8.832,7.79435294 C9.62117647,7.79435294 10.1167059,8.28988235 10.1167059,9.00564706 C10.1167059,9.83152941 9.65788235,10.4188235 8.53835294,10.4188235 L7.896,10.4188235 L7.896,12.5661176 L8.88705882,12.5661176 C10.0616471,12.5661176 10.6305882,13.0432941 10.6305882,13.8324706 C10.6305882,14.64 10.0616471,15.2272941 9.08894118,15.2272941 C7.896,15.2272941 7.10682353,14.4381176 6.72141176,13.7590588 L4.94117647,15.3924706 C5.4,16.0715294 6.648,17.3745882 9.05223529,17.3745882 C11.5482353,17.3745882 13.1082353,15.8512941 13.1082353,13.7774118 L13.1082353,13.6672941 C13.3835294,13.7774118 13.6771765,13.8508235 14.0075294,13.8508235 C14.3195294,13.8508235 14.5948235,13.7957647 14.8334118,13.7223529 L14.8334118,18.0536471 L17.4211765,18.0536471 L17.4211765,7.73929412 L19.3482353,7.73929412 L19.3482353,5.73882353 Z" id="Combined-Shape"></path>
            </g>
        </g>
    </g>
</svg>