<?xml version="1.0" encoding="UTF-8"?>
<svg width="13px" height="16px" viewBox="0 0 13 16" version="1.1" xmlns="http://www.w3.org/2000/svg" xmlns:xlink="http://www.w3.org/1999/xlink">
    <!-- Generator: Sketch 48.2 (47327) - http://www.bohemiancoding.com/sketch -->
    <title>{}</title>
    <desc>Created with Sketch.</desc>
    <defs></defs>
    <g id="Desktop-HD-Copy-3" stroke="none" stroke-width="1" fill="none" fill-rule="evenodd" transform="translate(-68.000000, -108.000000)">
        <g id="Group-5" transform="translate(68.000000, 106.000000)" fill="#FF309D">
            <g id="Group">
                <path d="M4.54024812,18 C3.96075879,17.8419341 3.47692058,17.6348165 3.08871898,17.3786408 C2.70051739,17.1224651 2.38827296,16.8295026 2.15197634,16.4997445 C1.91567972,16.1699864 1.74830545,15.8102557 1.64984853,15.4205416 C1.5513916,15.0308276 1.50216388,14.6206801 1.50216388,14.1900869 L1.50216388,12.5304037 C1.50216388,12.0180523 1.38401734,11.6092674 1.14772072,11.3040368 C0.911424093,10.9988062 0.528854347,10.8461932 0,10.8461932 L0,9.15380685 C0.264427173,9.15380685 0.492281213,9.11429098 0.683568956,9.03525805 C0.874856698,8.95622512 1.03097891,8.84312797 1.15194028,8.69596321 C1.27290164,8.54879845 1.36151155,8.37165833 1.41777265,8.16453756 C1.47403375,7.95741678 1.50216388,7.72304679 1.50216388,7.46142054 L1.50216388,5.80173735 C1.50216388,5.37114416 1.5513916,4.96099667 1.64984853,4.57128258 C1.74830545,4.18156848 1.91567972,3.82183779 2.15197634,3.49207971 C2.38827296,3.16232164 2.70051739,2.87072176 3.08871898,2.61727133 C3.47692058,2.36382091 3.96075879,2.15806586 4.54024812,2 L5.01283901,3.31630046 C4.75403794,3.40895975 4.54024897,3.53568307 4.37146567,3.6964742 C4.20268236,3.85726532 4.06765775,4.04530637 3.96638777,4.26060296 C3.86511779,4.47589956 3.79479246,4.7143574 3.75540969,4.97598365 C3.71602692,5.23760989 3.69633583,5.51285838 3.69633583,5.80173735 L3.69633583,7.46142054 C3.69633583,8.00647522 3.57678279,8.4997423 3.33767311,8.94123659 C3.09856343,9.38273087 2.71458718,9.73428587 2.18573283,9.99591211 C2.70896107,10.2575384 3.09153082,10.610456 3.33345355,11.0546755 C3.57537628,11.4988951 3.69633583,11.9907996 3.69633583,12.5304037 L3.69633583,14.1900869 C3.69633583,14.4789658 3.71602692,14.7542143 3.75540969,15.0158406 C3.79479246,15.2774668 3.86511779,15.5159247 3.96638777,15.7312213 C4.06765775,15.9465179 4.20268236,16.1359215 4.37146567,16.2994379 C4.54024897,16.4629543 4.75403794,16.588315 5.01283901,16.6755238 L4.54024812,18 Z M7.98716099,16.6755238 C8.24033595,16.588315 8.45131191,16.4629543 8.62009521,16.2994379 C8.78887851,16.1359215 8.92390313,15.9465179 9.02517311,15.7312213 C9.12644309,15.5159247 9.19817492,15.2774668 9.24037074,15.0158406 C9.28256657,14.7542143 9.30366417,14.4789658 9.30366417,14.1900869 L9.30366417,12.5304037 C9.30366417,12.2578763 9.3332008,11.996254 9.39227496,11.7455289 C9.45134911,11.4948037 9.54417854,11.2604337 9.67076601,11.0424119 C9.79735349,10.82439 9.95769522,10.6281732 10.151796,10.4537557 C10.3458968,10.2793383 10.5779704,10.1294505 10.8480237,10.0040879 C10.3079171,9.75336274 9.9155018,9.40453298 9.67076601,8.95758815 C9.42603022,8.51064331 9.30366417,8.01192576 9.30366417,7.46142054 L9.30366417,5.80173735 C9.30366417,5.51285838 9.28256657,5.23760989 9.24037074,4.97598365 C9.19817492,4.7143574 9.12644309,4.47589956 9.02517311,4.26060296 C8.92390313,4.04530637 8.78887851,3.85726532 8.62009521,3.6964742 C8.45131191,3.53568307 8.24033595,3.40895975 7.98716099,3.31630046 L8.45975188,2 C9.03924121,2.15806586 9.52307942,2.36382091 9.91128102,2.61727133 C10.2994826,2.87072176 10.611727,3.16232164 10.8480237,3.49207971 C11.0843203,3.82183779 11.2516945,4.18156848 11.3501515,4.57128258 C11.4486084,4.96099667 11.4978361,5.37114416 11.4978361,5.80173735 L11.4978361,7.46142054 C11.4978361,7.72304679 11.5259663,7.95741678 11.5822274,8.16453756 C11.6384885,8.37165833 11.7270984,8.54879845 11.8480597,8.69596321 C11.9690211,8.84312797 12.1251433,8.95622512 12.316431,9.03525805 C12.5077188,9.11429098 12.7355728,9.15380685 13,9.15380685 L13,10.8461932 C12.7355728,10.8461932 12.5077188,10.885709 12.316431,10.964742 C12.1251433,11.0437749 11.9690211,11.156872 11.8480597,11.3040368 C11.7270984,11.4512016 11.6384885,11.6283417 11.5822274,11.8354624 C11.5259663,12.0425832 11.4978361,12.274228 11.4978361,12.5304037 L11.4978361,14.1900869 C11.4978361,14.6206801 11.4486084,15.0308276 11.3501515,15.4205416 C11.2516945,15.8102557 11.0843203,16.1699864 10.8480237,16.4997445 C10.611727,16.8295026 10.2994826,17.1224651 9.91128102,17.3786408 C9.52307942,17.6348165 9.03924121,17.8419341 8.45975188,18 L7.98716099,16.6755238 Z" id="{}"></path>
            </g>
        </g>
    </g>
</svg>