<?xml version="1.0" encoding="UTF-8"?>
<svg width="138px" height="122px" viewBox="0 0 138 122" version="1.1" xmlns="http://www.w3.org/2000/svg" xmlns:xlink="http://www.w3.org/1999/xlink">
    <!-- Generator: Sketch 48.2 (47327) - http://www.bohemiancoding.com/sketch -->
    <title>Group</title>
    <desc>Created with Sketch.</desc>
    <defs>
        <linearGradient x1="50%" y1="0%" x2="50%" y2="100%" id="linearGradient-1">
            <stop stop-color="#00D9FC" offset="0%"></stop>
            <stop stop-color="#00B2F7" offset="100%"></stop>
        </linearGradient>
        <path d="M1.5277658,6.97156823 C5.93412748,3.74896463 15.2495184,0.0941249414 25.9174281,0.0941249414 C36.5853377,0.0941249414 43.2213612,2.4342825 50.3070903,6.97156823 C57.3928195,11.508854 46.6410639,31.322805 27.1416295,31.8221052 C7.64219518,32.3214053 -2.87859587,10.1941718 1.5277658,6.97156823 Z" id="path-2"></path>
        <path d="M1.5277658,6.97156823 C5.93412748,3.74896463 15.2495184,0.0941249414 25.9174281,0.0941249414 C36.5853377,0.0941249414 43.2213612,2.4342825 50.3070903,6.97156823 C57.3928195,11.508854 46.6410639,31.322805 27.1416295,31.8221052 C7.64219518,32.3214053 -2.87859587,10.1941718 1.5277658,6.97156823 Z" id="path-4"></path>
        <linearGradient x1="50%" y1="0%" x2="50%" y2="100%" id="linearGradient-6">
            <stop stop-color="#FF5ECC" offset="0%"></stop>
            <stop stop-color="#FF309D" offset="100%"></stop>
        </linearGradient>
    </defs>
    <g id="Desktop-HD-Copy-4" stroke="none" stroke-width="1" fill="none" fill-rule="evenodd" transform="translate(-644.000000, -248.000000)">
        <g id="Group" transform="translate(644.000000, 248.000000)">
            <path d="M124.483597,60.8754876 L133.734574,58.9884748 C135.658291,58.5960753 137.535875,59.8374536 137.928274,61.7611707 C137.97597,61.9949969 138,62.2330316 138,62.4716728 L138,88.0610132 C138,90.0243433 136.408407,91.6159368 134.445076,91.6159368 C134.206435,91.6159368 133.968401,91.5919071 133.734574,91.5442112 L124.483597,89.6571985 C122.828228,89.3195366 121.639175,87.8634566 121.639175,86.1740005 L121.639175,64.3586856 C121.639175,62.6692295 122.828228,61.2131494 124.483597,60.8754876 Z" id="Rectangle-3" fill="url(#linearGradient-1)"></path>
            <path d="M2.84442146,60.8754876 L12.0953991,58.9884748 C14.0191162,58.5960753 15.8966997,59.8374536 16.2890992,61.7611707 C16.336795,61.9949969 16.3608247,62.2330316 16.3608247,62.4716728 L16.3608247,88.0610132 C16.3608247,90.0243433 14.7692312,91.6159368 12.8059012,91.6159368 C12.56726,91.6159368 12.3292253,91.5919071 12.0953991,91.5442112 L2.84442146,89.6571985 C1.18905252,89.3195366 1.37089552e-15,87.8634566 2.66453526e-15,86.1740005 L-2.22044605e-15,64.3586856 C-3.17761397e-15,62.6692295 1.18905252,61.2131494 2.84442146,60.8754876 Z" id="Rectangle-3-Copy" fill="url(#linearGradient-1)" transform="translate(8.180412, 75.265993) scale(-1, 1) translate(-8.180412, -75.265993) "></path>
            <g id="Path-5" transform="translate(42.680412, 26.272189)">
                <mask id="mask-3" fill="white">
                    <use xlink:href="#path-2"></use>
                </mask>
                <use id="Mask" fill="url(#linearGradient-1)" xlink:href="#path-2"></use>
                <path d="M3.32399431,9.41872865 C23.7269252,10.4219638 33.7093724,12.7271106 33.271336,16.3341692 C32.6142813,21.7447571 28.3814142,27.5401603 24.2702499,29.3476688 C21.5294737,30.5526745 23.922025,31.8943786 31.4479038,33.3727811 L45.3199177,23.1112729 L49.7497605,7.35631507 L49.7497605,5.45751823 L35.9928145,1.90640299 L21.6364033,1.90640299 L6.78021441,3.13107078 L1.84738002,5.45751823 L3.32399431,9.41872865 Z" fill-opacity="0.2" fill="#495297" mask="url(#mask-3)"></path>
            </g>
            <g id="Path-5-Copy" transform="translate(42.680412, 26.272189)">
                <mask id="mask-5" fill="white">
                    <use xlink:href="#path-4"></use>
                </mask>
                <use id="Mask" stroke="#202866" stroke-width="3.55492357" xlink:href="#path-4"></use>
            </g>
            <path d="M68.4664948,120 C100.582992,120 126.618557,100.13098 126.618557,75.6213018 C126.618557,58.3471945 113.686041,42.6965761 94.8068358,34.9614989 C86.8989406,31.7215225 91.8795909,58.7553162 69.3515021,58.7553162 C46.8234133,58.7553162 51.1160101,31.5049003 43.5686499,34.3903743 C23.9088089,41.9066392 10.314433,57.9106826 10.314433,75.6213018 C10.314433,100.13098 36.3499979,120 68.4664948,120 Z" id="Oval" stroke="#202866" stroke-width="3.55492357" fill="#FFFFFF"></path>
            <path d="M75.1576564,60.0415432 C80.0844529,60.5887205 86.5583719,59.0891442 94.5794135,55.5428143 C97.2273178,57.0738675 93.5868977,59.3203141 83.6581533,62.2821541 L35.2078414,95.188061 C42.4559962,100.871818 50.900551,103.978288 60.5415058,104.507472 C70.1824606,105.036656 80.5317288,103.548376 91.5893104,100.04263 L60.5415058,117.514793 C57.4481095,118.117176 74.8184439,118.613136 82.471328,117.159763 C87.5732507,116.190848 93.1152484,114.318781 99.0973209,111.543562 C104.693274,108.67177 108.611341,106.028599 110.851522,103.614048 C112.067071,102.303884 119.552203,97.62598 123.984529,82.9342414 C124.612621,80.8523176 125.216089,77.3606315 124.718157,71.8739081 C124.606696,70.6457207 124.196567,68.5139618 123.48777,65.4786314 C120.464827,58.0797284 116.588154,52.102611 111.857752,47.5472792 C107.12735,42.9919474 101.008562,39.287994 93.501386,36.4354189 L92.4892055,37.2525373 C90.0280412,44.9254517 87.692339,50.1935782 85.4820989,53.0569167 C83.2718588,55.9202553 79.830378,58.2484642 75.1576564,60.0415432 Z" id="Path-4" fill-opacity="0.1" fill="#495297"></path>
            <path d="M30.0531415,60.1442848 C43.3113926,63.5726367 56.1751221,65.2868127 68.6443299,65.2868127 C81.1135374,65.2868127 93.9772665,63.5726368 107.235517,60.144285 L107.235517,60.1442823 C109.136328,59.6527658 111.075692,60.7952248 111.567209,62.6960358 C111.642375,62.9867214 111.680412,63.2857585 111.680412,63.5860051 L111.680405,87.2809474 C111.680405,88.6353624 110.910772,89.8720987 109.695628,90.4703184 C96.3899916,97.0207338 82.7062255,100.295942 68.6443299,100.295942 C54.5824287,100.295942 40.8986573,97.0207312 27.5930156,90.4703106 L27.5930209,90.4702999 C26.3778792,89.8720808 25.6082474,88.635346 25.6082474,87.2809327 L25.6082401,63.5860119 C25.6082401,61.6226778 27.1998369,60.0310811 29.163171,60.0310811 C29.463418,60.0310811 29.7624555,60.0691185 30.0531415,60.1442848 Z" id="Rectangle-2" stroke="#202865" stroke-width="3.55492357" fill="url(#linearGradient-1)"></path>
            <path d="M41.0946256,82.1079228 C41.0946256,76.2356446 43.7002251,73.2995056 48.9114241,73.2995056 C54.1226231,73.2995056 56.7282226,76.6403866 56.7282226,83.3221487" id="Path-2" stroke="#1F2765" stroke-width="4.26590828" stroke-linecap="round" stroke-linejoin="round"></path>
            <path d="M84.4863782,81.7528932 C84.4863782,75.8806151 87.0919777,72.944476 92.3031767,72.944476 C97.5143757,72.944476 100.119975,76.285357 100.119975,82.9671191" id="Path-2-Copy" stroke="#1F2765" stroke-width="4.26590828" stroke-linecap="round" stroke-linejoin="round"></path>
            <path d="M68.2598059,11.3133322 C65.4666187,10.9511814 63.3092784,8.56731062 63.3092784,5.68047337 C63.3092784,2.54323456 65.8571012,0 69,0 C72.1428988,0 74.6907216,2.54323456 74.6907216,5.68047337 C74.6907216,8.31911655 72.8883871,10.53756 70.4455552,11.1760591 L71.1340206,26.9822485 L67.5773196,26.9822485 L68.2598059,11.3133322 Z" id="Combined-Shape" fill="url(#linearGradient-6)"></path>
        </g>
    </g>
</svg>