<?xml version="1.0" encoding="UTF-8"?>
<svg width="300px" height="265px" viewBox="0 0 300 265" version="1.1" xmlns="http://www.w3.org/2000/svg" xmlns:xlink="http://www.w3.org/1999/xlink">
    <!-- Generator: Sketch 48.2 (47327) - http://www.bohemiancoding.com/sketch -->
    <title>Group</title>
    <desc>Created with Sketch.</desc>
    <defs>
        <linearGradient x1="50%" y1="0%" x2="50%" y2="100%" id="linearGradient-1">
            <stop stop-color="#00D9FC" offset="0%"></stop>
            <stop stop-color="#00B2F7" offset="100%"></stop>
        </linearGradient>
        <path d="M3.32123001,15.1631609 C12.9002771,8.15399807 33.1511271,0.204721747 56.3422349,0.204721747 C79.5333428,0.204721747 93.9594808,5.29456443 109.36324,15.1631609 C124.766999,25.0317574 101.393617,68.1271009 59.0035425,69.2130787 C16.6134678,70.2990566 -6.2578171,22.1723237 3.32123001,15.1631609 Z" id="path-2"></path>
        <path d="M3.32123001,15.1631609 C12.9002771,8.15399807 33.1511271,0.204721747 56.3422349,0.204721747 C79.5333428,0.204721747 93.9594808,5.29456443 109.36324,15.1631609 C124.766999,25.0317574 101.393617,68.1271009 59.0035425,69.2130787 C16.6134678,70.2990566 -6.2578171,22.1723237 3.32123001,15.1631609 Z" id="path-4"></path>
        <linearGradient x1="50%" y1="0%" x2="50%" y2="100%" id="linearGradient-6">
            <stop stop-color="#FF5ECC" offset="0%"></stop>
            <stop stop-color="#FF309D" offset="100%"></stop>
        </linearGradient>
    </defs>
    <g id="Artboard-Copy" stroke="none" stroke-width="1" fill="none" fill-rule="evenodd" transform="translate(-121.000000, -88.000000)">
        <g id="Group" transform="translate(121.000000, 88.000000)">
            <path d="M270.618865,132.403706 L290.721957,128.30103 C294.905959,127.447152 298.989967,130.14675 299.843846,134.330751 C299.947684,134.83956 300,135.357537 300,135.876835 L300,191.531758 C300,195.802 296.538284,199.263716 292.268041,199.263716 C291.748744,199.263716 291.230767,199.211401 290.721957,199.107562 L270.618865,195.004886 C267.018788,194.270176 264.43299,191.103365 264.43299,187.429082 L264.43299,139.97951 C264.43299,136.305228 267.018788,133.138416 270.618865,132.403706 Z" id="Rectangle-3" fill="url(#linearGradient-1)"></path>
            <path d="M6.1858749,132.403706 L26.2889677,128.30103 C30.4729689,127.447152 34.5569773,130.14675 35.4108559,134.330751 C35.5146947,134.83956 35.5670103,135.357537 35.5670103,135.876835 L35.5670103,191.531758 C35.5670103,195.802 32.1052945,199.263716 27.8350515,199.263716 C27.315754,199.263716 26.7977775,199.211401 26.2889677,199.107562 L6.1858749,195.004886 C2.58579805,194.270176 -1.4891339e-16,191.103365 2.66453526e-15,187.429082 L-4.4408921e-15,139.97951 C-6.52257118e-15,136.305228 2.58579805,133.138416 6.1858749,132.403706 Z" id="Rectangle-3-Copy" fill="url(#linearGradient-1)" transform="translate(17.783505, 163.703535) scale(-1, 1) translate(-17.783505, -163.703535) "></path>
            <g id="Path-5" transform="translate(92.783505, 57.142012)">
                <mask id="mask-3" fill="white">
                    <use xlink:href="#path-2"></use>
                </mask>
                <use id="Mask" fill="url(#linearGradient-1)" xlink:href="#path-2"></use>
                <path d="M7.22607459,20.4857348 C51.5802722,22.6677712 73.2812444,27.6814656 72.3289913,35.526818 C70.9006116,47.2948467 61.6987265,59.8998487 52.7614127,63.8311797 C46.8032036,66.4520671 52.0044021,69.3702734 68.3650082,72.5857988 L98.5215601,50.2670185 L108.151653,15.9999853 L108.151653,11.8701022 L78.2452488,4.14642651 L47.0356594,4.14642651 L14.7395965,6.81007894 L4.01604353,11.8701022 L7.22607459,20.4857348 Z" fill-opacity="0.2" fill="#495297" mask="url(#mask-3)"></path>
            </g>
            <g id="Path-5-Copy" transform="translate(92.783505, 57.142012)">
                <mask id="mask-5" fill="white">
                    <use xlink:href="#path-4"></use>
                </mask>
                <use id="Mask" stroke="#121E4A" stroke-width="7.73195876" xlink:href="#path-4"></use>
            </g>
            <path d="M148.840206,261 C218.658678,261 275.257732,217.784882 275.257732,164.476331 C275.257732,126.905148 247.143568,92.865053 206.101817,76.0412601 C188.91074,68.9943113 199.738241,127.792813 150.764135,127.792813 C101.790029,127.792813 111.121761,68.5231582 94.7144564,74.799064 C51.9756714,91.1469403 22.4226804,125.955735 22.4226804,164.476331 C22.4226804,217.784882 79.0217346,261 148.840206,261 Z" id="Oval" stroke="#121E4A" stroke-width="7.73195876" fill="#FFFFFF"></path>
            <path d="M163.38621,130.590357 C174.096637,131.780467 188.170374,128.518889 205.607421,120.805621 C211.363734,124.135662 203.449778,129.021683 181.865551,135.463685 L76.5387856,207.034033 C92.295644,219.396203 110.653372,226.152776 131.611969,227.303752 C152.570567,228.454728 175.068976,225.217717 199.107197,217.59272 L131.611969,255.594675 C124.887195,256.904857 162.648791,257.98357 179.285496,254.822485 C190.376632,252.715095 202.424453,248.643349 215.428959,242.607247 C227.594075,236.361101 236.111612,230.612203 240.981569,225.360555 C243.624067,222.510948 259.896093,212.336506 269.531585,180.381975 C270.897003,175.853791 272.208889,168.259374 271.126427,156.32575 C270.884121,153.654443 269.992537,149.017867 268.451674,142.416023 C261.880058,126.323409 253.452509,113.323179 243.169026,103.415332 C232.885544,93.5074856 219.583829,85.4513869 203.263883,79.2470361 L201.06349,81.0242687 C195.713133,97.7128574 190.63552,109.171032 185.83065,115.398794 C181.02578,121.626555 173.5443,126.69041 163.38621,130.590357 Z" id="Path-4" fill-opacity="0.1" fill="#495297"></path>
            <path d="M65.3385386,130.815274 C94.1588381,138.27097 122.121593,141.998818 149.226804,141.998818 C176.332013,141.998818 204.294766,138.27097 233.115063,130.815276 L233.115061,130.81527 C237.249212,129.745782 241.467594,132.230182 242.537082,136.364332 C242.700704,136.996822 242.783505,137.647499 242.783505,138.300811 L242.783509,189.837099 C242.783509,192.782419 241.110162,195.471931 238.467957,196.773337 C209.542911,211.020227 179.79586,218.143673 149.226804,218.143673 C118.657748,218.143673 88.9106963,211.020227 59.9856505,196.773336 L59.9856518,196.773334 C57.3434488,195.471929 55.6701031,192.782419 55.6701031,189.837102 L55.6701079,138.300805 C55.6701079,134.030564 59.1318216,130.568851 63.4020619,130.568851 C64.0553726,130.568851 64.7060494,130.651651 65.3385386,130.815274 Z" id="Rectangle-2" stroke="#121E4A" stroke-width="7.73195876" fill="url(#linearGradient-1)"></path>
            <path d="M89.3361427,178.584732 C89.3361427,165.812527 95.0004894,159.426425 106.329183,159.426425 C117.657876,159.426425 123.322223,166.692841 123.322223,181.225673" id="Path-2" stroke="#121E4A" stroke-width="9.27835052" stroke-linecap="round" stroke-linejoin="round"></path>
            <path d="M183.66604,177.812543 C183.66604,165.040338 189.330386,158.654235 200.65908,158.654235 C211.987773,158.654235 217.65212,165.920652 217.65212,180.453484" id="Path-2-Copy" stroke="#121E4A" stroke-width="9.27835052" stroke-linecap="round" stroke-linejoin="round"></path>
            <path d="M148.390882,24.6064976 C142.318736,23.8188196 137.628866,18.6339006 137.628866,12.3550296 C137.628866,5.53153516 143.167611,0 150,0 C156.832389,0 162.371134,5.53153516 162.371134,12.3550296 C162.371134,18.0940785 158.453016,22.9191931 153.142511,24.3079285 L154.639175,58.6863905 L146.907216,58.6863905 L148.390882,24.6064976 Z" id="Combined-Shape" fill="url(#linearGradient-6)"></path>
        </g>
    </g>
</svg>