<?xml version="1.0" encoding="UTF-8"?>
<svg width="12px" height="17px" viewBox="0 0 12 17" version="1.1" xmlns="http://www.w3.org/2000/svg" xmlns:xlink="http://www.w3.org/1999/xlink">
    <!-- Generator: Sketch 48.2 (47327) - http://www.bohemiancoding.com/sketch -->
    <title>mic - material</title>
    <desc>Created with Sketch.</desc>
    <defs></defs>
    <g id="Desktop-HD-Copy-4" stroke="none" stroke-width="1" fill="none" fill-rule="evenodd" transform="translate(-915.000000, -281.000000)">
        <path d="M925.42,289.18 L926.82,289.18 C926.82,290.113338 926.593336,290.993329 926.14,291.82 C925.699998,292.606671 925.09667,293.263331 924.33,293.79 C923.56333,294.316669 922.726671,294.639999 921.82,294.76 L921.82,297.5 L920.18,297.5 L920.18,294.76 C919.273329,294.639999 918.43667,294.316669 917.67,293.79 C916.90333,293.263331 916.300002,292.606671 915.86,291.82 C915.406664,290.993329 915.18,290.113338 915.18,289.18 L916.58,289.18 C916.58,289.993337 916.793331,290.726663 917.22,291.38 C917.620002,292.00667 918.156663,292.499998 918.83,292.86 C919.503337,293.220002 920.226663,293.4 921,293.4 C921.773337,293.4 922.496663,293.220002 923.17,292.86 C923.843337,292.499998 924.379998,292.00667 924.78,291.38 C925.206669,290.726663 925.42,289.993337 925.42,289.18 Z M921,291.68 C920.559998,291.68 920.146669,291.566668 919.76,291.34 C919.373331,291.113332 919.066668,290.806669 918.84,290.42 C918.613332,290.033331 918.5,289.620002 918.5,289.18 L918.5,284.18 C918.5,283.739998 918.613332,283.326669 918.84,282.94 C919.066668,282.553331 919.373331,282.246668 919.76,282.02 C920.146669,281.793332 920.559998,281.68 921,281.68 C921.440002,281.68 921.853331,281.793332 922.24,282.02 C922.626669,282.246668 922.933332,282.553331 923.16,282.94 C923.386668,283.326669 923.5,283.739998 923.5,284.18 L923.5,289.18 C923.5,289.620002 923.386668,290.033331 923.16,290.42 C922.933332,290.806669 922.626669,291.113332 922.24,291.34 C921.853331,291.566668 921.440002,291.68 921,291.68 Z" id="mic---material" fill="#00D0FA"></path>
    </g>
</svg>