<?xml version="1.0" encoding="UTF-8"?>
<svg width="16px" height="16px" viewBox="0 0 16 16" version="1.1" xmlns="http://www.w3.org/2000/svg" xmlns:xlink="http://www.w3.org/1999/xlink">
    <!-- Generator: Sketch 48.2 (47327) - http://www.bohemiancoding.com/sketch -->
    <title>ion-social-python - Ionicons</title>
    <desc>Created with Sketch.</desc>
    <defs></defs>
    <g id="Desktop-HD-Copy-3" stroke="none" stroke-width="1" fill="none" fill-rule="evenodd" transform="translate(-789.000000, -108.000000)">
        <g id="Group-2" transform="translate(789.000000, 106.000000)" fill="#00B2F7">
            <path d="M5.8125,9.66666597 L5.875,9.66666597 C5.65277667,9.66666597 5.48611167,9.68055472 5.375,9.70833263 C4.79166375,9.81944429 4.3055575,10.0972193 3.91666667,10.5416659 C3.52777583,10.9861125 3.33333333,11.4999962 3.33333333,12.0833324 L3.33333333,13.9999989 L2.70833333,13.9999989 C2.09721917,13.9999989 1.55555792,13.7291683 1.08333333,13.187499 C0.61110875,12.6458297 0.2916675,11.9583366 0.125,11.1249992 C0.04166625,10.7638863 0,10.3888901 0,9.99999927 L0,9.95833261 C0,8.84721604 0.26388625,7.9097255 0.791666667,7.14583286 C1.31944708,6.38194023 1.95832958,5.99999964 2.70833333,5.99999964 L8,5.99999964 L8,5.33333303 L4,5.33333303 L4,4.12499981 C4,3.54166361 4.12499875,3.10416802 4.375,2.81249993 C4.62500125,2.52083183 5.138885,2.30555622 5.91666667,2.16666665 C6.6388925,2.05555499 7.26388625,2 7.79166667,2 C8.73611583,2 9.49999708,2.05555499 10.0833333,2.16666665 C10.6111137,2.25000039 11.0624981,2.47222037 11.4375,2.83333326 C11.8125019,3.19444614 12,3.62499735 12,4.12499981 L12,7.79166614 C12,8.73611522 11.5416712,9.33333141 10.625,9.58333264 C10.4027767,9.63888847 10.2222229,9.66666597 10.0833333,9.66666597 L5.8125,9.66666597 Z M5.83333333,4.62499976 C6.30555792,4.62499976 6.54166667,4.38889103 6.54166667,3.91666649 C6.54166667,3.41666404 6.30555792,3.16666656 5.83333333,3.16666656 C5.61111,3.16666656 5.43055625,3.2361103 5.29166667,3.37499987 C5.15277708,3.51388945 5.08333333,3.69444318 5.08333333,3.91666649 C5.08333333,4.38889103 5.33333083,4.62499976 5.83333333,4.62499976 Z M15.8333333,8.6249994 C15.944445,8.98611228 16,9.44444099 16,9.99999927 C16,10.5555576 15.9027788,11.1527737 15.7083333,11.7916658 C15.1805529,13.2638952 14.3750054,13.9999989 13.2916667,13.9999989 L8,13.9999989 L8,14.6666655 L12,14.6666655 L12,15.7499987 C12,16.6666699 11.3611175,17.3194411 10.0833333,17.7083319 C8.66665958,18.0972227 7.31945083,18.0972227 6.04166667,17.7083319 C4.68054875,17.3194411 4,16.6666699 4,15.7499987 L4,12.1249991 C4,11.2361058 4.45832875,10.6666671 5.375,10.4166659 C5.59722333,10.3611101 5.77777708,10.3333326 5.91666667,10.3333326 L10.25,10.3333326 C10.3055558,10.3333326 10.3749996,10.3263882 10.4583333,10.3124992 C10.5416671,10.2986103 10.5972221,10.2916659 10.625,10.2916659 C11.2083362,10.2083322 11.6944425,9.93055719 12.0833333,9.45833265 C12.4722242,8.98610811 12.6666667,8.40278067 12.6666667,7.70833281 L12.6666667,5.99999964 L13.2916667,5.99999964 C13.8750029,5.99999964 14.395831,6.24305274 14.8541667,6.72916624 C15.3125023,7.21527973 15.6388879,7.8472178 15.8333333,8.6249994 Z M10.1666667,15.2916655 C9.66666417,15.2916655 9.41666667,15.5277742 9.41666667,15.9999987 C9.41666667,16.222222 9.48611042,16.4027758 9.625,16.5416653 C9.76388958,16.6805549 9.94444333,16.7499987 10.1666667,16.7499987 C10.6388913,16.7499987 10.875,16.5000012 10.875,15.9999987 C10.875,15.5277742 10.6388913,15.2916655 10.1666667,15.2916655 Z" id="ion-social-python---Ionicons"></path>
        </g>
    </g>
</svg>