<?xml version="1.0" encoding="UTF-8"?>
<svg width="107px" height="15px" viewBox="0 0 107 15" version="1.1" xmlns="http://www.w3.org/2000/svg" xmlns:xlink="http://www.w3.org/1999/xlink">
    <!-- Generator: Sketch 48.2 (47327) - http://www.bohemiancoding.com/sketch -->
    <title>DEXTER</title>
    <desc>Created with Sketch.</desc>
    <defs></defs>
    <g id="Desktop-HD-Copy-3" stroke="none" stroke-width="1" fill="none" fill-rule="evenodd" transform="translate(-36.000000, -35.000000)">
        <path d="M47.43,40.028 C47.808,40.892 47.988,41.81 47.988,42.8 C47.988,43.79 47.808,44.708 47.43,45.572 C47.034,46.454 46.53,47.21 45.882,47.876 C45.234,48.524 44.46,49.046 43.578,49.424 C42.714,49.802 41.778,50 40.788,50 L36,50 L38.394,47.588 L40.788,47.588 C41.454,47.588 42.084,47.462 42.66,47.228 C43.236,46.976 43.758,46.634 44.19,46.184 C44.622,45.734 44.964,45.23 45.216,44.654 C45.468,44.06 45.594,43.448 45.594,42.8 C45.594,42.152 45.468,41.54 45.216,40.946 C44.964,40.37 44.622,39.866 44.172,39.416 C43.74,38.984 43.218,38.624 42.642,38.372 C42.066,38.138 41.436,38.012 40.788,38.012 L38.394,38.012 L36,35.6 L40.788,35.6 C41.778,35.6 42.696,35.798 43.578,36.176 C44.442,36.554 45.216,37.076 45.864,37.724 C46.53,38.39 47.034,39.146 47.43,40.028 Z M56.2422859,49.802 L58.6362859,47.588 L65.8362859,47.588 L65.8362859,50 L56.2422859,50 L56.2422859,49.802 Z M56.2422859,35.6 L65.8362859,35.6 L65.8362859,38.012 L58.6362859,38.012 L56.2422859,35.6 Z M56.2422859,41.612 L65.8362859,41.612 L65.8362859,44.006 L56.2422859,44.006 L56.2422859,41.612 Z M78.4825717,35.6 L82.5685717,40.856 L81.0565717,42.8 L75.4045717,35.6 L78.4825717,35.6 Z M75.4045717,50 L81.0565717,42.8 L82.5685717,44.744 L78.4825717,50 L75.4045717,50 Z M89.7145717,35.6 L84.0985717,42.8 L82.5685717,40.856 L86.6725717,35.6 L89.7145717,35.6 Z M82.5685717,44.744 L84.0985717,42.8 L89.7145717,50 L86.6725717,50 L82.5685717,44.744 Z M99.6608576,35.6 L106.860858,35.6 L106.860858,38.012 L102.072858,38.012 L102.072858,50 L99.6608576,50 L99.6608576,35.6 Z M114.647143,49.802 L117.041143,47.588 L124.241143,47.588 L124.241143,50 L114.647143,50 L114.647143,49.802 Z M114.647143,35.6 L124.241143,35.6 L124.241143,38.012 L117.041143,38.012 L114.647143,35.6 Z M114.647143,41.612 L124.241143,41.612 L124.241143,44.006 L114.647143,44.006 L114.647143,41.612 Z M141.981429,43.106 C141.423429,43.916 140.721429,44.492 139.875429,44.834 L142.827429,50 L140.073429,50 L135.897429,42.782 L138.039429,42.8 C138.687429,42.8 139.245429,42.566 139.713429,42.098 C140.199429,41.63 140.433429,41.054 140.433429,40.388 C140.433429,39.74 140.199429,39.182 139.713429,38.714 C139.245429,38.246 138.687429,38.012 138.039429,38.012 L133.233429,38.012 L132.963429,37.742 L131.721429,35.6 L138.039429,35.6 C139.353429,35.6 140.487429,36.068 141.423429,37.004 C142.359429,37.958 142.827429,39.074 142.827429,40.388 C142.827429,41.396 142.557429,42.296 141.981429,43.106 Z" id="DEXTER" fill="#00C1F9"></path>
    </g>
</svg>