<?xml version="1.0" encoding="UTF-8"?>
<svg width="14px" height="18px" viewBox="0 0 14 18" version="1.1" xmlns="http://www.w3.org/2000/svg" xmlns:xlink="http://www.w3.org/1999/xlink">
    <!-- Generator: Sketch 48.2 (47327) - http://www.bohemiancoding.com/sketch -->
    <title>replay - material</title>
    <desc>Created with Sketch.</desc>
    <defs></defs>
    <g id="Desktop-HD-Copy-3" stroke="none" stroke-width="1" fill="none" fill-rule="evenodd" transform="translate(-595.000000, -111.000000)">
        <path d="M602,115.18 C603.213339,115.18 604.333328,115.479997 605.36,116.08 C606.373338,116.66667 607.17333,117.459995 607.76,118.46 C608.373336,119.500005 608.68,120.619994 608.68,121.82 C608.68,123.020006 608.373336,124.139995 607.76,125.18 C607.17333,126.193338 606.373338,126.99333 605.36,127.58 C604.319995,128.193336 603.200006,128.5 602,128.5 C600.799994,128.5 599.680005,128.193336 598.64,127.58 C597.626662,126.99333 596.82667,126.193338 596.24,125.18 C595.626664,124.139995 595.32,123.020006 595.32,121.82 L597,121.82 C597,122.726671 597.223331,123.563329 597.67,124.33 C598.116669,125.096671 598.723329,125.703331 599.49,126.15 C600.256671,126.596669 601.093329,126.82 602,126.82 C602.906671,126.82 603.743329,126.596669 604.51,126.15 C605.276671,125.703331 605.883331,125.096671 606.33,124.33 C606.776669,123.563329 607,122.726671 607,121.82 C607,120.913329 606.776669,120.076671 606.33,119.31 C605.883331,118.543329 605.276671,117.936669 604.51,117.49 C603.743329,117.043331 602.906671,116.82 602,116.82 L602,120.18 L597.82,116 L602,111.82 L602,115.18 Z" id="replay---material" fill="#5762B9"></path>
    </g>
</svg>